<?xml version="1.0" standalone="no"?><!DOCTYPE svg PUBLIC "-//W3C//DTD SVG 1.1//EN" "http://www.w3.org/Graphics/SVG/1.1/DTD/svg11.dtd"><svg t="1612420896171" class="icon" viewBox="0 0 1024 1024" version="1.1" xmlns="http://www.w3.org/2000/svg" p-id="9036" width="32" height="32" xmlns:xlink="http://www.w3.org/1999/xlink"><defs><style type="text/css"></style></defs><path d="M512 102.4A409.6 409.6 0 1 1 102.4 512 409.6 409.6 0 0 1 512 102.4M512 0a512 512 0 1 0 512 512 512 512 0 0 0-512-512z" p-id="9037" fill="#1296db"></path><path d="M460.8 435.2m51.2 0l0 0q51.2 0 51.2 51.2l0 238.933333q0 51.2-51.2 51.2l0 0q-51.2 0-51.2-51.2l0-238.933333q0-51.2 51.2-51.2Z" p-id="9038" fill="#1296db"></path><path d="M512 298.666667m-51.2 0a51.2 51.2 0 1 0 102.4 0 51.2 51.2 0 1 0-102.4 0Z" p-id="9039" fill="#1296db"></path></svg>